HIERARCHY
ROOT hip
{
  OFFSET 0 0 0
  CHANNELS 6 Xposition Yposition Zposition Zrotation Yrotation Xrotation
  JOINT abdomen
  {
    OFFSET 0 20.6881 -0.73152
    CHANNELS 3 Zrotation Xrotation Yrotation
    JOINT chest
    {
      OFFSET 0 11.7043 -0.48768
      CHANNELS 3 Zrotation Xrotation Yrotation
      JOINT neck
      {
        OFFSET 0 22.1894 -2.19456
        CHANNELS 3 Zrotation Xrotation Yrotation
        JOINT head
        {
          OFFSET -0.24384 7.07133 1.2192
          CHANNELS 3 Zrotation Xrotation Yrotation
          JOINT leftEye
          {
            OFFSET 4.14528 8.04674 8.04672
            CHANNELS 3 Zrotation Xrotation Yrotation
            End Site
            {
              OFFSET 1 0 0
            }
          }
          JOINT rightEye
          {
            OFFSET -3.6576 8.04674 8.04672
            CHANNELS 3 Zrotation Xrotation Yrotation
            End Site
            {
              OFFSET 1 0 0
            }
          }
        }
      }
      JOINT rCollar
      {
        OFFSET -2.68224 19.2634 -4.8768
        CHANNELS 3 Zrotation Xrotation Yrotation
        JOINT rShldr
        {
          OFFSET -8.77824 -1.95073 1.46304
          CHANNELS 3 Zrotation Xrotation Yrotation
          JOINT rForeArm
          {
            OFFSET -28.1742 -1.7115 0.48768
            CHANNELS 3 Zrotation Xrotation Yrotation
            JOINT rHand
            {
              OFFSET -22.5879 0.773209 7.07136
              CHANNELS 3 Zrotation Xrotation Yrotation
              JOINT rThumb1
              {
                OFFSET -1.2192 -0.487915 3.41376
                CHANNELS 3 Zrotation Xrotation Yrotation
                JOINT rThumb2
                {
                  OFFSET -3.37035 -0.52449 3.41376
                  CHANNELS 3 Zrotation Xrotation Yrotation
                  End Site
                  {
                    OFFSET -1.78271 -1.18214 1.43049
                  }
                }
              }
              JOINT rIndex1
              {
                OFFSET -7.75947 0.938293 5.60832
                CHANNELS 3 Zrotation Xrotation Yrotation
                JOINT rIndex2
                {
                  OFFSET -2.54057 -0.884171 1.56538
                  CHANNELS 3 Zrotation Xrotation Yrotation
                  End Site
                  {
                    OFFSET -1.62519 -0.234802 1.16502
                  }
                }
              }
              JOINT rMid1
              {
                OFFSET -8.24714 1.18213 3.41376
                CHANNELS 3 Zrotation Xrotation Yrotation
                JOINT rMid2
                {
                  OFFSET -3.10165 -0.590103 1.0647
                  CHANNELS 3 Zrotation Xrotation Yrotation
                  End Site
                  {
                    OFFSET -2.48547 -0.328903 0.83742
                  }
                }
              }
              JOINT rRing1
              {
                OFFSET -8.82822 0.546677 1.51678
                CHANNELS 3 Zrotation Xrotation Yrotation
                JOINT rRing2
                {
                  OFFSET -2.60934 -0.819778 -0.0198488
                  CHANNELS 3 Zrotation Xrotation Yrotation
                  End Site
                  {
                    OFFSET -2.33842 -0.294052 0.168128
                  }
                }
              }
              JOINT rPinky1
              {
                OFFSET -8.27202 -0.0477905 -0.4584
                CHANNELS 3 Zrotation Xrotation Yrotation
                JOINT rPinky2
                {
                  OFFSET -1.82734 -0.647385 -0.700984
                  CHANNELS 3 Zrotation Xrotation Yrotation
                  End Site
                  {
                    OFFSET -1.69225 -0.51767 -0.607171
                  }
                }
              }
            }
          }
        }
      }
      JOINT lCollar
      {
        OFFSET 2.68224 19.2634 -4.8768
        CHANNELS 3 Zrotation Xrotation Yrotation
        JOINT lShldr
        {
          OFFSET 8.77824 -1.95073 1.46304
          CHANNELS 3 Zrotation Xrotation Yrotation
          JOINT lForeArm
          {
            OFFSET 28.1742 -1.7115 0.48768
            CHANNELS 3 Zrotation Xrotation Yrotation
            JOINT lHand
            {
              OFFSET 22.5879 0.773209 7.07136
              CHANNELS 3 Zrotation Xrotation Yrotation
              JOINT lThumb1
              {
                OFFSET 1.2192 -0.487915 3.41376
                CHANNELS 3 Zrotation Xrotation Yrotation
                JOINT lThumb2
                {
                  OFFSET 3.37035 -0.52449 3.41376
                  CHANNELS 3 Zrotation Xrotation Yrotation
                  End Site
                  {
                    OFFSET 1.78271 -1.18214 1.43049
                  }
                }
              }
              JOINT lIndex1
              {
                OFFSET 7.75947 0.938293 5.60832
                CHANNELS 3 Zrotation Xrotation Yrotation
                JOINT lIndex2
                {
                  OFFSET 2.54057 -0.884171 1.56538
                  CHANNELS 3 Zrotation Xrotation Yrotation
                  End Site
                  {
                    OFFSET 1.62519 -0.234802 1.16502
                  }
                }
              }
              JOINT lMid1
              {
                OFFSET 8.24714 1.18213 3.41376
                CHANNELS 3 Zrotation Xrotation Yrotation
                JOINT lMid2
                {
                  OFFSET 3.10165 -0.590103 1.0647
                  CHANNELS 3 Zrotation Xrotation Yrotation
                  End Site
                  {
                    OFFSET 2.48547 -0.328903 0.83742
                  }
                }
              }
              JOINT lRing1
              {
                OFFSET 8.82822 0.546677 1.51678
                CHANNELS 3 Zrotation Xrotation Yrotation
                JOINT lRing2
                {
                  OFFSET 2.60934 -0.819778 -0.0198488
                  CHANNELS 3 Zrotation Xrotation Yrotation
                  End Site
                  {
                    OFFSET 2.33842 -0.294052 0.168128
                  }
                }
              }
              JOINT lPinky1
              {
                OFFSET 8.27202 -0.0477905 -0.4584
                CHANNELS 3 Zrotation Xrotation Yrotation
                JOINT lPinky2
                {
                  OFFSET 1.82734 -0.647385 -0.700984
                  CHANNELS 3 Zrotation Xrotation Yrotation
                  End Site
                  {
                    OFFSET 1.69225 -0.51767 -0.607171
                  }
                }
              }
            }
          }
        }
      }
    }
  }
  JOINT rButtock
  {
    OFFSET -8.77824 4.35084 1.2192
    CHANNELS 3 Zrotation Xrotation Yrotation
    JOINT rThigh
    {
      OFFSET 0 -1.70687 -2.19456
      CHANNELS 3 Zrotation Xrotation Yrotation
      JOINT rShin
      {
        OFFSET 0 -36.8199 0.73152
        CHANNELS 3 Zrotation Xrotation Yrotation
        JOINT rFoot
        {
          OFFSET 0.73152 -45.1104 -5.12064
          CHANNELS 3 Zrotation Xrotation Yrotation
          End Site
          {
            OFFSET -1.1221 -3.69964 12.103
          }
        }
      }
    }
  }
  JOINT lButtock
  {
    OFFSET 8.77824 4.35084 1.2192
    CHANNELS 3 Zrotation Xrotation Yrotation
    JOINT lThigh
    {
      OFFSET 0 -1.70687 -2.19456
      CHANNELS 3 Zrotation Xrotation Yrotation
      JOINT lShin
      {
        OFFSET 0 -36.8199 0.73152
        CHANNELS 3 Zrotation Xrotation Yrotation
        JOINT lFoot
        {
          OFFSET -0.73152 -45.1104 -5.12064
          CHANNELS 3 Zrotation Xrotation Yrotation
          End Site
          {
            OFFSET 1.1221 -3.69964 12.103
          }
        }
      }
    }
  }
}
MOTION
Frames:	4
Frame Time:	0.03333
-2.0091149024665356 72.70386219024658 18.239174224436283 -3.5820791721343994 -8.144906044006348 7.540404796600342 -9.02578353881836 17.591421127319336 10.008005142211914 1.5395488739013672 -7.9480085372924805 2.5701215267181396 -2.786158323287964 14.151082992553711 -4.040759563446045 7.812467098236084 -30.826982498168945 -6.035760402679443 -0.08239689469337463 0.07180371135473251 -0.048645202070474625 -0.06286811083555222 -0.11526297777891159 0.05516265705227852 0.0576351061463356 0.026769794523715973 0.035919226706027985 57.54796600341797 33.51768493652344 1.9154114723205566 -28.352569580078125 -32.030357360839844 70.57038116455078 -0.07672073692083359 6.295066833496094 0.8308828473091125 0.01688483916223049 -0.026417909190058708 -0.06350785493850708 0.00824236311018467 -0.06067073345184326 -0.05083867534995079 0.00833769142627716 0.0031756232492625713 -0.018482720479369164 7.5857086181640625 5.48424768447876 0.4879271388053894 0.025941653177142143 -0.06470079720020294 0.08524291217327118 2.8422346115112305 0.9149271845817566 0.1554517298936844 0.013320890255272388 0.0198650099337101 0.059955645352602005 10.327433586120605 0.7171670198440552 0.0312621109187603 0.04129352420568466 0.03088432364165783 0.010376328602433205 2.2592694759368896 -0.6761303544044495 -0.14801055192947388 0.004049526993185282 0.08030608296394348 0.0030523925088346004 -46.76506042480469 31.984004974365234 -31.825899124145508 28.131938934326172 -31.802900314331055 -70.3996810913086 1.2078379392623901 -26.833953857421875 4.548971176147461 -0.034696388989686966 -0.09161299467086792 -0.005839267745614052 -0.017023548483848572 0.05500568449497223 0.04446329176425934 -0.09132272005081177 0.08442521840333939 -0.06621100008487701 -7.637723922729492 5.511022090911865 -0.42176759243011475 -0.027083933353424072 -0.01895800605416298 -0.03686632215976715 -2.92352032661438 0.8507944941520691 -0.025421738624572754 0.05579162389039993 -0.011937279254198074 -0.01567741110920906 -10.270277976989746 0.7199068665504456 -0.07588882744312286 0.006827322766184807 0.02701018564403057 0.07537565380334854 -2.1951539516448975 -0.6538875102996826 0.22376424074172974 0.06688026338815689 0.07206440716981888 -0.001196542871184647 -19.32105827331543 -57.49192810058594 -18.03958511352539 -172.98947143554688 79.91006469726562 173.0133056640625 -3.5507636070251465 -1.7542288303375244 -11.38621997833252 0.11832834035158157 0.11245685815811157 0.06659357249736786 -0.3075014650821686 -56.906734466552734 0.45274221897125244 2.0567681789398193 68.63338470458984 -2.13531494140625 4.734799385070801 -12.625914573669434 12.952815055847168
-2.2252953611314297 73.09556603431702 20.466853864490986 -4.315005779266357 -7.336392879486084 5.3394341468811035 -8.951874732971191 20.106101989746094 9.038492202758789 1.9394309520721436 -8.165124893188477 2.2934975624084473 -2.8040201663970947 14.244050979614258 -3.9765708446502686 7.890522480010986 -30.869489669799805 -5.903360366821289 -0.12761543691158295 0.06687543541193008 -0.08268465846776962 -0.09968356043100357 -0.08935561776161194 0.058309104293584824 0.06494244188070297 0.019351383671164513 0.014746694825589657 58.4288444519043 32.55438232421875 1.6733336448669434 -28.34131622314453 -31.325119018554688 69.36383056640625 -0.11861903220415115 5.493286609649658 0.6845552325248718 0.04643479362130165 -0.07214075326919556 -0.056396178901195526 0.04403289407491684 -0.049547575414180756 -0.038315895944833755 0.02960345707833767 0.0071188523434102535 -0.005173221696168184 7.582789421081543 5.456246852874756 0.4590652287006378 0.06183017045259476 -0.07174576818943024 0.083688884973526 2.818209648132324 0.9140166640281677 0.13702580332756042 -0.01088619139045477 0.02122586779296398 0.05115729942917824 10.333748817443848 0.7182207703590393 -0.025794662535190582 0.04431476816534996 0.044106096029281616 0.014909597113728523 2.2234599590301514 -0.6818082928657532 -0.14726577699184418 0.019166402518749237 0.05013575032353401 0.031731583178043365 -46.2229118347168 31.83025360107422 -33.311927795410156 28.022809982299805 -31.083091735839844 -69.19652557373047 1.2481298446655273 -26.715871810913086 4.571589469909668 -0.007784964516758919 -0.06022045761346817 0.01775764673948288 -0.04815511777997017 0.09056609869003296 0.04032231494784355 -0.06425926834344864 0.10116250813007355 -0.03559901565313339 -7.640390396118164 5.526614189147949 -0.3743551969528198 0.010112859308719635 -0.025969933718442917 -0.025395691394805908 -2.955376386642456 0.8444889783859253 -0.04648110643029213 -0.0329437293112278 0.01658693328499794 0.015964878723025322 -10.30475902557373 0.7087993025779724 -0.04680606722831726 0.02192070335149765 -0.0029277577996253967 0.023975718766450882 -2.192727565765381 -0.6500119566917419 0.19741395115852356 0.058911945670843124 0.044231511652469635 -0.027791526168584824 -24.56088638305664 -63.94097900390625 -23.90772819519043 -174.00413513183594 77.10106658935547 174.1295623779297 -3.5191762447357178 -2.920381784439087 -11.532736778259277 0.09804069250822067 0.09704772382974625 0.06958340108394623 -0.682498037815094 -52.932640075683594 -0.13177397847175598 1.8459525108337402 67.38487243652344 -2.212505340576172 4.823086738586426 -13.466269493103027 12.2720947265625
-2.5535703636705875 74.85637068748474 22.697062231600285 -4.547745227813721 -5.755160808563232 2.7553012371063232 -8.847162246704102 23.365385055541992 7.797674179077148 2.3860020637512207 -8.42288875579834 1.8903735876083374 -2.6931073665618896 14.381348609924316 -3.9740140438079834 7.963442802429199 -31.66619110107422 -5.885960578918457 -0.13080596923828125 0.03366237133741379 -0.05453056842088699 -0.07908254861831665 -0.10574863851070404 0.033560846000909805 0.07197868824005127 0.00806367676705122 -0.017932718619704247 59.230796813964844 31.796876907348633 1.123128890991211 -28.290006637573242 -30.635454177856445 67.9968032836914 -0.20418529212474823 4.484933853149414 0.5409041047096252 0.06738642603158951 -0.11236735433340073 -0.03092232719063759 0.0306701697409153 -0.0012643191730603576 -0.011960320174694061 0.05191117525100708 0.030728856101632118 0.0027439419645816088 7.590549468994141 5.438051223754883 0.4148159325122833 0.039552342146635056 -0.046721428632736206 0.08683589100837708 2.837519407272339 0.929921567440033 0.09982197731733322 0.004125674720853567 0.020064009353518486 0.050740815699100494 10.337703704833984 0.7215944528579712 -0.06264593452215195 0.028891783207654953 0.053830549120903015 0.013727954588830471 2.2144012451171875 -0.642164409160614 -0.1639823466539383 0.0027595949359238148 0.017287442460656166 0.07067541033029556 -46.32272720336914 30.824098587036133 -34.63296127319336 27.80577850341797 -30.222797393798828 -68.1031723022461 1.113745927810669 -26.44179916381836 4.453221797943115 -0.023905476555228233 -0.03203093260526657 0.04313621670007706 -0.021810278296470642 0.0737251564860344 0.04953733831644058 -0.06944668292999268 0.09231794625520706 -0.021231096237897873 -7.720839500427246 5.543900966644287 -0.3615368604660034 0.029448041692376137 0.013592462986707687 0.006379249971359968 -2.9914534091949463 0.8912936449050903 -0.08372455090284348 -0.033144451677799225 0.015999896451830864 0.013253996148705482 -10.332935333251953 0.6806623935699463 -0.06489428132772446 -0.0032137047965079546 -0.028073793277144432 -0.015470566228032112 -2.2282018661499023 -0.6739511489868164 0.2154989093542099 0.09269867837429047 0.041897252202034 -0.016534943133592606 -31.8664608001709 -70.5710220336914 -31.562498092651367 -174.73370361328125 73.796875 174.97874450683594 -3.8961501121520996 -3.6171138286590576 -11.901715278625488 0.07607538253068924 0.06852300465106964 0.0410148948431015 -1.772789478302002 -48.398319244384766 -1.2695332765579224 1.545223355293274 65.41536712646484 -2.2647640705108643 4.777227401733398 -14.314339637756348 11.363869667053223
-2.9637142084538937 76.03760957717896 24.797198735177517 -5.079136371612549 -3.3768150806427 -0.4200275242328644 -8.502809524536133 26.950836181640625 6.339785099029541 2.9268434047698975 -8.730037689208984 1.4899086952209473 -2.754044532775879 14.531421661376953 -3.9604482650756836 7.975115776062012 -32.30930709838867 -5.937108039855957 -0.10895781964063644 0.0001778159203240648 -0.05619822442531586 -0.08052534610033035 -0.09558236598968506 0.031087694689631462 0.07521287351846695 -0.010266155004501343 -0.033718377351760864 59.54121017456055 30.761890411376953 0.6661185026168823 -28.228212356567383 -30.377347946166992 67.4013442993164 -0.17148564755916595 3.472806215286255 0.38368263840675354 0.05414434149861336 -0.1488770842552185 -0.003443558933213353 0.015761960297822952 0.014813010580837727 0.0011576449032872915 0.08362385630607605 0.03333831578493118 0.01346231997013092 7.58537483215332 5.420162200927734 0.4001522660255432 0.028763780370354652 -0.011918192729353905 0.07905662804841995 2.8212525844573975 0.9510287642478943 0.0879695862531662 0.007680235430598259 0.026326078921556473 0.03920608013868332 10.339395523071289 0.716038703918457 -0.05569535493850708 -0.0010769920190796256 0.07020772248506546 0.006495188921689987 2.193938732147217 -0.6528418064117432 -0.15914303064346313 -0.01721121370792389 0.015606888569891453 0.08471812307834625 -45.864585876464844 29.944185256958008 -36.6217155456543 27.594478607177734 -29.44205093383789 -67.04073333740234 0.9842795729637146 -26.231534957885742 4.27151346206665 -0.020047159865498543 0.013514659367501736 0.028360355645418167 0.004054870456457138 0.036161165684461594 0.036085858941078186 -0.045886024832725525 0.04841151088476181 -0.02254481054842472 -7.801907062530518 5.498047351837158 -0.3547942340373993 0.029403850436210632 0.03354606404900551 -0.002768418751657009 -2.9874916076660156 0.9473295211791992 -0.07771916687488556 -0.054836809635162354 0.014744464308023453 0.031834352761507034 -10.336287498474121 0.671664297580719 -0.0413895882666111 -0.03192942216992378 -0.044972047209739685 -0.0226723775267601 -2.2234630584716797 -0.6748781204223633 0.21072036027908325 0.09394200146198273 0.0613689161837101 -0.030306970700621605 -45.480892181396484 -75.64486694335938 -44.72249984741211 -175.1232452392578 71.13072204589844 175.4053192138672 -3.949068307876587 -3.624288320541382 -11.77826976776123 0.06601670384407043 0.04933752492070198 0.04695560038089752 -2.71051287651062 -42.14966583251953 -2.571864604949951 1.1399885416030884 63.00199890136719 -2.355726480484009 4.873313903808594 -15.186038970947266 11.110430717468262
